<svg width="115" height="32" viewBox="0 0 115 32" fill="none" xmlns="http://www.w3.org/2000/svg">
<path d="M26.1902 18.157H29.7181L32.8838 27.9419L36.0112 18.157H39.5392L35.0005 31.8104H30.7288L26.1902 18.157Z" fill="#362F4C"/>
<path d="M50.5946 18.157V20.7929H44.2252V23.6563H49.0308V26.2922H44.2252V29.1745H50.5946V31.8104H41.0214V18.157H50.5946Z" fill="#362F4C"/>
<path d="M52.5305 18.157H56.497L60.4827 26.3111V18.157H63.6864V31.8104H59.7389L55.7342 23.6184V31.8104H52.5305V18.157Z" fill="#362F4C"/>
<path d="M65.1301 20.7929V18.157H76.5149V20.7929H72.4339V31.8104H69.2302V20.7929H65.1301Z" fill="#362F4C"/>
<path d="M81.1733 18.157V25.7233C81.1733 26.4312 81.2178 27.0127 81.3068 27.4679C81.4085 27.923 81.5547 28.2833 81.7454 28.5487C81.9489 28.8142 82.1968 29.0039 82.4892 29.1176C82.7943 29.2188 83.1566 29.2693 83.5762 29.2693C83.983 29.2693 84.3326 29.2188 84.625 29.1176C84.9301 29.0039 85.178 28.8142 85.3687 28.5487C85.5722 28.2833 85.7184 27.923 85.8074 27.4679C85.9091 27.0001 85.9599 26.4186 85.9599 25.7233V18.157H89.1637V25.7612C89.1637 26.899 89.062 27.8661 88.8586 28.6625C88.6679 29.459 88.35 30.1037 87.9051 30.5967C87.4601 31.0898 86.8816 31.4501 86.1697 31.6776C85.4577 31.8926 84.5869 32 83.5571 32C82.5273 32 81.6564 31.8926 80.9445 31.6776C80.2453 31.4501 79.6732 31.0898 79.2282 30.5967C78.7832 30.1037 78.459 29.4653 78.2556 28.6815C78.0649 27.885 77.9696 26.9116 77.9696 25.7612V18.157H81.1733Z" fill="#362F4C"/>
<path d="M97.3572 18.157C99.0227 18.157 100.25 18.5173 101.038 19.2379C101.839 19.9459 102.239 21.1279 102.239 22.784C102.239 23.9724 102.042 24.8952 101.648 25.5526C101.254 26.1973 100.637 26.6525 99.7982 26.9179L102.334 31.8104H99.0545L96.747 27.2213H94.9544V31.8104H91.7506V18.157H97.3572ZM96.48 24.7372C97.3572 24.7372 97.9865 24.5855 98.3679 24.2821C98.7493 23.9787 98.94 23.4793 98.94 22.784C98.94 22.0634 98.7493 21.5514 98.3679 21.248C97.9865 20.9446 97.3572 20.7929 96.48 20.7929H94.9544V24.7372H96.48Z" fill="#362F4C"/>
<path d="M114.285 18.157V20.7929H107.916V23.6563H112.722V26.2922H107.916V29.1745H114.285V31.8104H104.712V18.157H114.285Z" fill="#362F4C"/>
<path d="M6.75693 28.3009C6.54696 28.6779 6.14861 28.9118 5.71626 28.9118H2.4181C1.7235 28.9118 1.08397 29.289 0.749182 29.8962L0.0745493 31.1197C-0.143671 31.5155 0.143327 31.9998 0.596085 31.9998L6.83703 31.9998C7.70172 31.9998 8.49843 31.5321 8.91836 30.778L11.8723 25.4733C12.2717 24.7561 12.2718 23.8841 11.8727 23.1668L11.265 22.0746C11.0383 21.6671 10.451 21.667 10.2242 22.0744L6.75693 28.3009Z" fill="url(#paint0_linear)"/>
<path d="M25.9723 31.9967H23.4431L19.1078 24.212C18.8874 23.8161 19.1743 23.3297 19.6282 23.3297H20.7567C21.6214 23.3297 22.4181 23.7974 22.838 24.5515L26.4926 31.1145C26.713 31.5103 26.4262 31.9967 25.9723 31.9967Z" fill="url(#paint1_linear)"/>
<path fill-rule="evenodd" clip-rule="evenodd" d="M3.73562 14.9817C4.15555 15.7358 4.95226 16.2035 5.81694 16.2035H6.94546C7.39932 16.2035 7.68621 15.717 7.46578 15.3212L3.13047 7.53633H0.601256C0.147396 7.53633 -0.139488 8.02276 0.0809254 8.41858L3.73562 14.9817Z" fill="url(#paint2_linear)"/>
<path d="M38.3986 3.72917C38.8142 3.64124 39.4874 3.51696 39.7162 3.47482C40.5595 3.33782 41.135 2.5443 40.998 1.70278C40.8609 0.861086 40.0658 0.28962 39.2222 0.426377L39.209 0.428802C38.9439 0.477634 38.194 0.615763 37.7565 0.708327C36.8679 0.89632 35.6398 1.18328 34.2801 1.57995C31.6238 2.35492 28.2264 3.61438 25.9695 5.52354C24.4664 6.79507 23.0286 8.72877 22.0085 10.249C21.678 10.7414 20.8984 12.0457 20.3712 12.9359C20.1374 13.3307 20.4234 13.8274 20.883 13.8274H22.0499C22.8883 13.8274 23.6607 13.3848 24.1126 12.6803C24.2585 12.4529 24.4151 12.2134 24.5805 11.9669C25.574 10.4865 26.8149 8.85706 27.9712 7.87886C29.6987 6.4176 32.5513 5.30166 35.1489 4.54384C36.4162 4.17411 37.566 3.90532 38.3986 3.72917Z" fill="#362F4C"/>
<path d="M3.81063 30.7749C3.39069 31.529 2.59399 31.9967 1.72933 31.9967H0.601038C0.147178 31.9967 -0.139707 31.5102 0.0807069 31.1144L3.73532 24.5514C4.15525 23.7973 4.95196 23.3296 5.81665 23.3296H6.94516C7.39902 23.3296 7.68591 23.8161 7.46548 24.2119L3.81063 30.7749Z" fill="#362F4C"/>
<path d="M19.8028 28.3009C20.0128 28.678 20.4111 28.9119 20.8435 28.9119H24.1416C24.8362 28.9119 25.4758 29.2891 25.8105 29.8963L26.4852 31.1198C26.7034 31.5156 26.4164 31.9999 25.9636 31.9999H19.7227C18.858 31.9999 18.0613 31.5322 17.6414 30.7781L6.75715 11.2322C6.54719 10.8551 6.14884 10.6213 5.7165 10.6213L2.41834 10.6212C1.72374 10.6212 1.08421 10.244 0.749425 9.63682L0.0747936 8.41328C-0.143427 8.01751 0.14357 7.5332 0.596329 7.5332L6.83727 7.53324C7.70195 7.53324 8.49866 8.00094 8.91858 8.75504L19.8028 28.3009Z" fill="#362F4C"/>
<path d="M40.9797 2.29355C41.1691 1.46202 40.6471 0.634729 39.8136 0.44574L39.7954 0.442153C39.667 0.416778 39.3397 0.352095 39.1468 0.320223C38.7416 0.253251 38.164 0.171506 37.452 0.107375C36.0316 -0.0205733 34.057 -0.080177 31.8382 0.196505C27.3998 0.749965 21.8707 2.67119 17.9681 8.18693C17.4345 8.94115 15.6499 12.1347 14.6849 13.8778C14.2899 14.5913 14.293 15.4568 14.6897 16.1693L15.3097 17.2827C15.5387 17.6939 16.1334 17.6891 16.3559 17.2743C16.6054 16.8093 16.8964 16.268 17.1098 15.8742C18.4499 13.4018 19.8863 10.8306 20.4968 9.96775C23.7371 5.38815 28.3271 3.74638 32.2221 3.26068C34.1699 3.01778 35.9156 3.06956 37.1737 3.18289C37.801 3.23939 38.3023 3.31076 38.6411 3.36674C38.8103 3.3947 39.0473 3.44118 39.13 3.45752C39.9627 3.64493 40.7905 3.12426 40.9797 2.29355Z" fill="url(#paint3_linear)"/>
<defs>
<linearGradient id="paint0_linear" x1="0" y1="7.53633" x2="27.0852" y2="8.12261" gradientUnits="userSpaceOnUse">
<stop stop-color="#855CFF"/>
<stop offset="1" stop-color="#9435F2"/>
</linearGradient>
<linearGradient id="paint1_linear" x1="0" y1="7.53633" x2="27.0852" y2="8.12261" gradientUnits="userSpaceOnUse">
<stop stop-color="#855CFF"/>
<stop offset="1" stop-color="#9435F2"/>
</linearGradient>
<linearGradient id="paint2_linear" x1="0" y1="7.53633" x2="27.0852" y2="8.12261" gradientUnits="userSpaceOnUse">
<stop stop-color="#855CFF"/>
<stop offset="1" stop-color="#9435F2"/>
</linearGradient>
<linearGradient id="paint3_linear" x1="14.3904" y1="0" x2="41.5246" y2="0.818765" gradientUnits="userSpaceOnUse">
<stop stop-color="#855CFF"/>
<stop offset="1" stop-color="#9435F2"/>
</linearGradient>
</defs>
</svg>
